FILE "Station Demo Disc 7 (E) (Track 1) [SLED-01969].bin" BINARY
  TRACK 01 MODE2/2352
    INDEX 01 00:00:00
FILE "Station Demo Disc 7 (E) (Track 2) [SLED-01969].bin" BINARY
  TRACK 02 AUDIO
    INDEX 00 00:00:00
    INDEX 01 00:02:00
FILE "Station Demo Disc 7 (E) (Track 3) [SLED-01969].bin" BINARY
  TRACK 03 AUDIO
    INDEX 00 00:00:00
    INDEX 01 00:02:00
